<?xml version="1.0" encoding="UTF-8" standalone="no"?>
<!-- Created with Inkscape (http://www.inkscape.org/) -->

<svg
   xmlns:dc="http://purl.org/dc/elements/1.1/"
   xmlns:cc="http://creativecommons.org/ns#"
   xmlns:rdf="http://www.w3.org/1999/02/22-rdf-syntax-ns#"
   xmlns:svg="http://www.w3.org/2000/svg"
   xmlns="http://www.w3.org/2000/svg"
   xmlns:sodipodi="http://sodipodi.sourceforge.net/DTD/sodipodi-0.dtd"
   xmlns:inkscape="http://www.inkscape.org/namespaces/inkscape"
   width="210mm"
   height="297mm"
   viewBox="0 0 744.09448819 1052.3622047"
   id="svg3400"
   version="1.1"
   inkscape:version="0.91 r13725"
   sodipodi:docname="WolfHead.svg">
  <defs
     id="defs3402" />
  <sodipodi:namedview
     id="base"
     pagecolor="#ffffff"
     bordercolor="#666666"
     borderopacity="1.0"
     inkscape:pageopacity="0.0"
     inkscape:pageshadow="2"
     inkscape:zoom="0.35"
     inkscape:cx="375"
     inkscape:cy="520"
     inkscape:document-units="px"
     inkscape:current-layer="layer1"
     showgrid="false"
     inkscape:window-width="1920"
     inkscape:window-height="1017"
     inkscape:window-x="1672"
     inkscape:window-y="-8"
     inkscape:window-maximized="1" />
  <metadata
     id="metadata3405">
    <rdf:RDF>
      <cc:Work
         rdf:about="">
        <dc:format>image/svg+xml</dc:format>
        <dc:type
           rdf:resource="http://purl.org/dc/dcmitype/StillImage" />
        <dc:title></dc:title>
      </cc:Work>
    </rdf:RDF>
  </metadata>
  <g
     inkscape:label="Ebene 1"
     inkscape:groupmode="layer"
     id="layer1">
    <path
       inkscape:connector-curvature="0"
       id="path38"
       style="fill:#ffffff;fill-opacity:1;fill-rule:nonzero;stroke:none"
       d="m 585.43129,473.24016 c -59.2884,-32.03404 -115.41926,-30.89712 -167.19369,-3.97393 12.61244,-95.71785 138.78647,-34.90115 173.86649,6.56301 z m -39.95712,85.04811 c -9.57532,13.90698 -16.51907,27.07727 -36.80843,21.34837 -2.07728,-17.6206 11.34978,-15.57696 6.11673,-36.17092 -9.98086,-17.78172 -25.60562,-12.10064 -34.14498,-0.71544 -9.25301,22.75623 1.19537,37.322 -6.79676,47.99351 -8.50391,11.38344 -37.36803,6.32571 -49.77859,5.80506 -2.76794,-86.12128 96.03131,-86.2541 154.59187,-75.64987 l 2.8246,2.81399 c -22.35601,6.48331 -22.63404,15.16433 -36.00444,34.5753 z m -102.50399,83.66149 c -4.4875,10.99559 -4.77793,12.27951 -5.93788,28.30805 -1.85414,25.69064 3.08139,53.98451 -1.76383,78.53823 -21.127,-1.57257 -13.62894,-93.07212 -12.86745,-123.25025 8.96259,-2.95743 17.36558,4.27499 26.50702,2.45448 l 2.96806,0 c -0.68003,14.64546 -5.72537,6.20705 -8.90592,13.94949 z m -23.1724,330.77117 c -0.55784,-9.41772 1.18474,-17.94467 2.1552,-26.94976 -25.0903,-7.46971 -15.13423,26.63986 -12.5788,39.00437 -28.30273,15.33616 -30.60315,-51.96567 10.06764,-49.28805 -8.91123,-7.16336 -20.04497,-9.67628 -31.75956,-10.45194 -5.48274,0.0514 -11.19039,-0.13459 -16.94764,-0.24439 -5.75724,0.10984 -11.46666,0.29575 -16.94764,0.24439 -11.71459,0.77566 -22.84655,3.28858 -31.76132,10.45194 40.67255,-2.67762 38.37392,64.62421 10.06941,49.28805 2.56782,-12.36451 12.52389,-46.47408 -12.57881,-39.00437 0.97224,9.00509 2.71305,17.53204 2.16407,26.94976 -26.77444,7.59014 -33.27015,-26.18472 -19.84308,-44.01605 13.65727,-18.15717 34.14143,-19.29587 55.55708,-19.46056 4.36531,-0.61097 8.80498,-0.6641 13.34029,-0.15584 4.53708,-0.50826 8.97853,-0.45513 13.34561,0.15584 21.41565,0.16469 41.90689,1.30517 55.56418,19.46056 13.41466,17.83133 6.91895,51.60619 -19.84663,44.01605 z m -130.20463,-344.72066 2.96982,0 c 9.12905,1.82051 17.53381,-5.41191 26.4964,-2.45448 0.77035,30.17813 8.25778,121.67768 -12.8586,123.25025 -4.84345,-24.55372 0.0886,-52.84759 -1.76383,-78.53823 -1.15994,-16.02854 -1.45038,-17.31246 -5.9361,-28.30805 -3.19295,-7.74244 -8.23829,0.69597 -8.90769,-13.94949 z m -21.96464,-37.25648 c -7.99212,-10.67151 2.45449,-25.23728 -6.79854,-47.99351 -8.53757,-11.3852 -24.17473,-17.06628 -34.14143,0.71544 -5.23482,20.59396 8.19224,18.55032 6.11673,36.17092 -20.30175,5.7289 -27.23275,-7.44139 -36.80879,-21.34837 -13.3711,-19.41097 -13.66082,-28.09199 -36.01736,-34.5753 l 2.82461,-2.81399 c 58.57207,-10.60423 157.35892,-10.47141 154.60338,75.64987 -12.41233,0.52065 -41.27467,5.57838 -49.7786,-5.80506 z m -111.52255,-117.50363 -6.67405,2.58908 c 35.06816,-41.46416 161.25636,-102.28086 173.8688,-6.56301 -51.78858,-26.92319 -107.90529,-28.06011 -167.19475,3.97393 z M 95.34503,265.95477 c -7.42118,-13.69448 -7.812025,-31.63206 -6.966064,-46.78754 15.828964,-0.35595 30.593234,5.49161 35.939804,-10.6237 2.67443,-8.0913 2.07055,-16.76878 3.31639,-25.39667 C 117.20465,147.51432 103.23729,123.85138 100.92412,119.66494 88.737934,97.66666 66.615327,113.658 65.29972,90.722909 l 2.834878,-13.637804 c 45.984252,-39.331982 76.107652,77.594325 82.033312,104.645035 11.44665,52.2136 3.98596,159.83378 71.1707,167.19545 4.03592,0.22668 8.26131,0.30992 12.6939,0.22314 -4.5052,0.29751 -8.72883,0.21074 -12.6939,-0.22314 -32.27844,-1.84883 -52.1279,-13.60592 -64.32701,-32.38291 -19.4905,-4.60791 -52.91436,-34.36988 -61.66657,-50.58791 z m 425.91367,82.97082 c 67.19554,-7.35105 59.72406,-114.98185 71.16947,-167.18306 5.92725,-27.0631 36.06111,-143.989407 82.0464,-104.657425 l 2.83524,13.637804 c -1.32818,22.951031 -23.4522,6.943751 -35.629,28.956201 -2.80513,5.05418 -22.65176,38.61298 -32.65918,87.37686 0.13813,0.49585 0.28689,0.9917 0.4498,1.48756 5.33578,16.11531 20.09988,10.289 35.91591,10.64673 0.85888,15.14485 0.46928,33.08066 -6.94199,46.78753 -7.17751,13.2907 -30.95733,35.69984 -50.03362,45.87374 -11.88282,21.50597 -32.25895,35.08357 -67.15303,37.07406 -3.96684,0.43388 -8.1887,0.52065 -12.69567,0.22314 4.43436,0.0867 8.65977,0.009 12.69567,-0.22314 z m 193.14997,219.46398 0,-71.62105 c -17.81538,-33.64204 -49.42087,-65.93996 -102.97329,-84.54694 2.57845,-11.71991 66.92104,-0.88015 86.81194,13.42884 -9.88878,-27.5625 -30.04886,-47.59153 -53.83045,-64.48251 49.46869,-96.27214 71.43332,-259.74514 38.8981,-302.866881 C 644.36198,6.6576572 617.0722,37.062467 583.35401,70.075831 546.77226,105.90494 504.44919,140.65912 459.90719,170.22629 c -10.44839,-23.22908 -25.28687,-44.5491 -41.27998,-59.90292 -1.83999,19.75454 7.09958,38.29422 4.05184,58.01512 -7.74774,-15.64956 -19.8236,-29.29799 -27.04362,-45.60279 -7.94609,-17.92518 -9.27604,-62.313117 -31.2513,-64.666661 -0.70306,25.938567 -8.17985,80.257791 -30.21355,93.775171 -4.5973,-11.47375 -1.27152,-23.97285 -7.03053,-35.33681 -1.93206,17.18672 -6.38414,30.56773 -14.83317,43.33601 -4.62562,6.99157 -10.81143,12.93653 -17.18848,18.74866 C 245.19105,147.1017 197.52249,108.6658 156.91739,68.896403 123.20097,35.904289 95.922711,5.4888544 56.969516,57.133997 24.255298,100.4771 46.617935,265.41287 96.628243,361.47428 73.034896,378.30504 53.057573,398.25615 43.221367,425.65042 63.111575,411.34143 127.4671,400.50167 130.0335,412.22158 80.533643,429.41892 49.918979,458.35033 31.48077,489.19963 l 0,75.7154 C 56.826962,546.45503 80.868531,547.3033 80.868531,547.3033 32.731482,614.13933 42.731599,644.54238 62.408885,688.87188 95.033,671.76131 132.08794,640.4551 177.28023,711.06142 c 27.93545,43.66186 37.54319,71.36248 45.54595,120.6293 8.08244,49.71307 13.9973,115.03852 28.69587,145.34947 17.28412,35.64311 78.47625,58.49321 119.30289,40.57511 40.82664,17.8083 101.87002,-4.9762 119.13288,-40.57511 14.70035,-30.31095 20.60457,-95.6364 28.68348,-145.34947 8.01515,-49.26682 17.6135,-76.96744 45.56028,-120.6293 45.18132,-70.60632 82.2359,-39.30011 114.86143,-22.18954 19.67485,-44.3295 29.6752,-74.73255 -18.46353,-141.56858 0,0 26.91079,-0.89077 53.80919,21.08627" />
  </g>
</svg>
